<svg version="1.1" xmlns="http://www.w3.org/2000/svg" width="781" height="739">
<path d="M0 0 C257.73 0 515.46 0 781 0 C781 243.87 781 487.74 781 739 C523.27 739 265.54 739 0 739 C0 495.13 0 251.26 0 0 Z " fill="#FEFEFE" transform="translate(0,0)"/>
<path d="M0 0 C1.6173626 0.91444445 3.19214643 1.90368881 4.75390625 2.91015625 C4.75390625 3.57015625 4.75390625 4.23015625 4.75390625 4.91015625 C5.31722656 5.01457031 5.88054688 5.11898437 6.4609375 5.2265625 C9.16916918 6.03395695 11.10298967 7.26680934 13.44140625 8.84765625 C14.22902344 9.37230469 15.01664063 9.89695312 15.828125 10.4375 C17.75390625 11.91015625 17.75390625 11.91015625 18.75390625 13.91015625 C20.52687125 14.71844445 20.52687125 14.71844445 22.69140625 15.34765625 C23.93083984 15.73824219 23.93083984 15.73824219 25.1953125 16.13671875 C28.32746741 17.0835381 31.46134267 18.02407721 34.59765625 18.95703125 C38.94914797 20.27109558 43.29027917 21.61678419 47.62890625 22.97265625 C48.46212402 23.23022705 49.2953418 23.48779785 50.15380859 23.75317383 C50.9473877 24.00220459 51.7409668 24.25123535 52.55859375 24.5078125 C53.26999512 24.72961182 53.98139648 24.95141113 54.71435547 25.17993164 C56.8274655 25.93649282 58.7682449 26.86767009 60.75390625 27.91015625 C60.42390625 29.23015625 60.09390625 30.55015625 59.75390625 31.91015625 C58.61050781 31.95914063 57.46710937 32.008125 56.2890625 32.05859375 C54.79815152 32.13360814 53.30726733 32.20915653 51.81640625 32.28515625 C50.68428711 32.3315625 50.68428711 32.3315625 49.52929688 32.37890625 C47.5988323 32.48278775 45.67448544 32.68911239 43.75390625 32.91015625 C43.42390625 33.57015625 43.09390625 34.23015625 42.75390625 34.91015625 C48.36390625 35.90015625 53.97390625 36.89015625 59.75390625 37.91015625 C60.08390625 39.56015625 60.41390625 41.21015625 60.75390625 42.91015625 C56.78934926 46.87471324 40.78949236 45.00202861 34.9921875 45.0859375 C33.89364944 45.10392899 33.89364944 45.10392899 32.7729187 45.12228394 C29.78503229 45.17036956 26.79756968 45.21830644 23.80932617 45.23608398 C13.77069047 45.30680159 5.27267341 46.33889498 -4.24609375 49.91015625 C-5.73109375 50.40515625 -5.73109375 50.40515625 -7.24609375 50.91015625 C-7.24609375 55.53015625 -7.24609375 60.15015625 -7.24609375 64.91015625 C-6.58609375 64.91015625 -5.92609375 64.91015625 -5.24609375 64.91015625 C-4.85421875 65.61140625 -4.46234375 66.31265625 -4.05859375 67.03515625 C-2.04675562 70.22634777 0.1527035 72.11660674 3.03515625 74.4921875 C5.0853673 76.18361161 6.98294299 77.9266774 8.75390625 79.91015625 C8.75390625 80.57015625 8.75390625 81.23015625 8.75390625 81.91015625 C9.47578125 82.15765625 10.19765625 82.40515625 10.94140625 82.66015625 C14.00448433 84.02152428 16.16724964 85.79998902 18.75390625 87.91015625 C19.74390625 88.24015625 20.73390625 88.57015625 21.75390625 88.91015625 C21.75390625 89.57015625 21.75390625 90.23015625 21.75390625 90.91015625 C22.31078125 90.95140625 22.86765625 90.99265625 23.44140625 91.03515625 C26.37668661 92.14580287 27.59139348 94.01188751 29.4765625 96.44140625 C30.77329788 98.09273812 30.77329788 98.09273812 33.12890625 99.28515625 C37.13516616 101.76522191 39.75808648 105.31932378 42.75390625 108.91015625 C43.59953125 109.81765625 44.44515625 110.72515625 45.31640625 111.66015625 C49.31528269 116.47213756 53.75390625 123.59515993 53.75390625 129.91015625 C54.41390625 129.91015625 55.07390625 129.91015625 55.75390625 129.91015625 C55.94726562 130.70679688 56.140625 131.5034375 56.33984375 132.32421875 C56.73042969 133.91363281 56.73042969 133.91363281 57.12890625 135.53515625 C57.38414062 136.57929688 57.639375 137.6234375 57.90234375 138.69921875 C58.6861432 141.86799393 58.6861432 141.86799393 59.79052734 144.67944336 C60.84414675 148.21277979 61.01249743 151.13054857 61.01953125 154.8125 C61.02210938 156.11509766 61.0246875 157.41769531 61.02734375 158.75976562 C61.0231543 159.43160889 61.01896484 160.10345215 61.01464844 160.7956543 C61.00395323 162.83868221 61.01456424 164.88082747 61.02734375 166.92382812 C61.02347656 168.8796582 61.02347656 168.8796582 61.01953125 170.875 C61.01727539 172.05698975 61.01501953 173.23897949 61.01269531 174.45678711 C60.73362098 178.18084978 59.87759399 181.35625216 58.75390625 184.91015625 C58.38838285 186.30241897 58.029993 187.69660635 57.68359375 189.09375 C57.50957031 189.79306641 57.33554687 190.49238281 57.15625 191.21289062 C56.98222656 191.91736328 56.80820312 192.62183594 56.62890625 193.34765625 C56.44714844 194.07919922 56.26539063 194.81074219 56.078125 195.56445312 C55.63562851 197.34608374 55.19461137 199.12808167 54.75390625 200.91015625 C54.09390625 200.91015625 53.43390625 200.91015625 52.75390625 200.91015625 C52.52703125 201.87953125 52.30015625 202.84890625 52.06640625 203.84765625 C50.94606851 207.78870249 49.10639427 211.09654854 47.0546875 214.625 C45.78909086 216.84834545 44.66869835 219.10236118 43.56640625 221.41015625 C41.75390625 224.91015625 41.75390625 224.91015625 39.75390625 225.91015625 C39.48578125 226.48765625 39.21765625 227.06515625 38.94140625 227.66015625 C37.35965496 230.6571587 35.17963671 232.53833091 32.75390625 234.91015625 C31.57736025 236.23478012 30.41126205 237.56873296 29.25390625 238.91015625 C26.52649844 242.04756655 23.82374238 245.10344893 20.75390625 247.91015625 C20.09390625 247.91015625 19.43390625 247.91015625 18.75390625 247.91015625 C18.45613281 248.74353516 18.45613281 248.74353516 18.15234375 249.59375 C16.19258926 252.83993552 13.38592529 254.7637557 10.37890625 256.97265625 C9.80140625 257.40642578 9.22390625 257.84019531 8.62890625 258.28710938 C7.00920326 259.50188662 5.38177196 260.70633951 3.75390625 261.91015625 C3.01914062 262.50699219 2.284375 263.10382813 1.52734375 263.71875 C-0.24609375 264.91015625 -0.24609375 264.91015625 -3.24609375 264.91015625 C-3.57609375 265.90015625 -3.90609375 266.89015625 -4.24609375 267.91015625 C-5.89609375 268.24015625 -7.54609375 268.57015625 -9.24609375 268.91015625 C-9.24609375 269.57015625 -9.24609375 270.23015625 -9.24609375 270.91015625 C-9.88546875 271.19890625 -10.52484375 271.48765625 -11.18359375 271.78515625 C-13.39815454 272.73839076 -13.39815454 272.73839076 -14.24609375 274.91015625 C-17.30859375 275.53515625 -17.30859375 275.53515625 -20.24609375 275.91015625 C-20.24609375 276.57015625 -20.24609375 277.23015625 -20.24609375 277.91015625 C-23.22878435 279.43464256 -26.06429575 280.84955692 -29.24609375 281.91015625 C-31.49781321 285.15666802 -31.52275464 288.13732255 -31.58984375 292.01171875 C-31.61812256 293.21626709 -31.64640137 294.42081543 -31.67553711 295.66186523 C-31.6988208 296.94005127 -31.72210449 298.2182373 -31.74609375 299.53515625 C-31.97315789 308.16947066 -32.21972879 316.75999018 -33.18359375 325.34765625 C-33.25835938 326.04262207 -33.333125 326.73758789 -33.41015625 327.45361328 C-34.15015176 333.51763386 -35.99041298 338.67871083 -38.74609375 344.09765625 C-39.16890625 344.93683594 -39.59171875 345.77601563 -40.02734375 346.640625 C-41.24609375 348.91015625 -41.24609375 348.91015625 -43.24609375 351.91015625 C-43.90609375 351.91015625 -44.56609375 351.91015625 -45.24609375 351.91015625 C-45.59800781 353.2559375 -45.59800781 353.2559375 -45.95703125 354.62890625 C-47.40915085 358.32521068 -48.87569911 359.85062399 -51.87109375 362.41015625 C-53.20720703 363.55291016 -53.20720703 363.55291016 -54.5703125 364.71875 C-55.45332031 365.44191406 -56.33632813 366.16507812 -57.24609375 366.91015625 C-58.01566406 367.54050781 -58.78523438 368.17085938 -59.578125 368.8203125 C-64.78953347 372.91015625 -64.78953347 372.91015625 -68.24609375 372.91015625 C-68.24609375 373.57015625 -68.24609375 374.23015625 -68.24609375 374.91015625 C-69.56609375 375.24015625 -70.88609375 375.57015625 -72.24609375 375.91015625 C-72.24609375 376.57015625 -72.24609375 377.23015625 -72.24609375 377.91015625 C-73.89609375 378.24015625 -75.54609375 378.57015625 -77.24609375 378.91015625 C-77.24609375 379.57015625 -77.24609375 380.23015625 -77.24609375 380.91015625 C-77.99375 381.17570312 -78.74140625 381.44125 -79.51171875 381.71484375 C-80.98898437 382.24464844 -80.98898437 382.24464844 -82.49609375 382.78515625 C-83.470625 383.13320313 -84.44515625 383.48125 -85.44921875 383.83984375 C-88.16994055 384.82629129 -88.16994055 384.82629129 -90.36328125 385.98046875 C-92.2883454 386.9310191 -94.03105408 387.44010717 -96.12109375 387.91015625 C-98.49810091 388.44907285 -100.71474416 389.0761839 -103.01782227 389.89208984 C-108.34218852 391.57117986 -113.77088243 391.96982564 -119.30859375 392.53515625 C-120.59523926 392.66704346 -121.88188477 392.79893066 -123.20751953 392.93481445 C-139.84525796 394.51566227 -156.55445488 394.18225703 -173.24609375 393.91015625 C-173.57609375 395.56015625 -173.90609375 397.21015625 -174.24609375 398.91015625 C-174.90609375 398.91015625 -175.56609375 398.91015625 -176.24609375 398.91015625 C-176.41109375 399.73515625 -176.57609375 400.56015625 -176.74609375 401.41015625 C-180.40535759 409.94843855 -187.40517608 413.77977103 -195.53515625 417.52734375 C-198.88563992 419.23638009 -200.77822397 421.12385166 -203.24609375 423.91015625 C-204.23609375 424.24015625 -205.22609375 424.57015625 -206.24609375 424.91015625 C-206.62366183 426.23164452 -206.94795135 427.56851546 -207.24609375 428.91015625 C-208.82323002 431.76402188 -210.58774353 434.40798879 -212.43359375 437.09765625 C-214.42666086 439.63268998 -214.42666086 439.63268998 -214.24609375 441.91015625 C-213.68100098 441.72839844 -213.1159082 441.54664063 -212.53369141 441.359375 C-209.98043966 440.53998131 -207.42579528 439.72501795 -204.87109375 438.91015625 C-203.98164063 438.62398438 -203.0921875 438.3378125 -202.17578125 438.04296875 C-201.325 437.77226562 -200.47421875 437.5015625 -199.59765625 437.22265625 C-198.81213379 436.97128906 -198.02661133 436.71992188 -197.21728516 436.4609375 C-195.24609375 435.91015625 -195.24609375 435.91015625 -193.24609375 435.91015625 C-193.24609375 435.25015625 -193.24609375 434.59015625 -193.24609375 433.91015625 C-192.53590088 433.74410889 -191.82570801 433.57806152 -191.09399414 433.40698242 C-187.83116449 432.64152243 -184.56988683 431.86963553 -181.30859375 431.09765625 C-180.19162109 430.83662109 -179.07464844 430.57558594 -177.92382812 430.30664062 C-172.214173 428.95038823 -166.64995454 427.50213183 -161.14624023 425.4543457 C-159.24609375 424.91015625 -159.24609375 424.91015625 -155.24609375 424.91015625 C-155.24609375 424.25015625 -155.24609375 423.59015625 -155.24609375 422.91015625 C-154.51390625 422.70261719 -153.78171875 422.49507813 -153.02734375 422.28125 C-146.20699373 420.34069803 -139.3952031 418.37334961 -132.59082031 416.37744141 C-130.51052156 415.76923794 -128.4291172 415.16480457 -126.34667969 414.56396484 C-121.67759712 413.21652614 -117.02281056 411.85416139 -112.40234375 410.34765625 C-99.27880556 406.17972701 -84.35210084 403.73390872 -71.68359375 410.22265625 C-67.76937154 412.9325024 -65.01557984 416.48644102 -63.24609375 420.91015625 C-63.24609375 421.90015625 -63.24609375 422.89015625 -63.24609375 423.91015625 C-62.25609375 424.24015625 -61.26609375 424.57015625 -60.24609375 424.91015625 C-59.54036679 426.95676444 -59.23650655 428.96608159 -58.87109375 431.09765625 C-58.66484375 431.69578125 -58.45859375 432.29390625 -58.24609375 432.91015625 C-57.25609375 433.24015625 -56.26609375 433.57015625 -55.24609375 433.91015625 C-52.14075184 437.30662397 -50.29046794 440.82140788 -48.24609375 444.91015625 C-45.06067366 450.73572296 -45.06067366 450.73572296 -40.24609375 454.91015625 C-37.86398886 460.22408255 -36.88412699 464.11868803 -37.24609375 469.91015625 C-40.46060644 471.5174126 -43.68221911 470.9676381 -47.24609375 470.91015625 C-47.57609375 470.25015625 -47.90609375 469.59015625 -48.24609375 468.91015625 C-49.26703125 468.56984375 -49.26703125 468.56984375 -50.30859375 468.22265625 C-54.59916344 466.3055932 -58.01501933 463.30959932 -61.24609375 459.91015625 C-61.24609375 459.25015625 -61.24609375 458.59015625 -61.24609375 457.91015625 C-62.11234375 457.53890625 -62.11234375 457.53890625 -62.99609375 457.16015625 C-65.57549354 455.72715637 -67.30730967 454.12590949 -69.24609375 451.91015625 C-69.24609375 451.25015625 -69.24609375 450.59015625 -69.24609375 449.91015625 C-70.23609375 449.58015625 -71.22609375 449.25015625 -72.24609375 448.91015625 C-72.93359375 446.84765625 -72.93359375 446.84765625 -73.24609375 444.91015625 C-74.23609375 444.91015625 -75.22609375 444.91015625 -76.24609375 444.91015625 C-76.23449219 446.11414063 -76.22289062 447.318125 -76.2109375 448.55859375 C-76.20155941 450.13411304 -76.19245923 451.709634 -76.18359375 453.28515625 C-76.17521484 454.07921875 -76.16683594 454.87328125 -76.15820312 455.69140625 C-76.1328125 461.68359375 -76.1328125 461.68359375 -77.24609375 463.91015625 C-79.88609375 463.58015625 -82.52609375 463.25015625 -85.24609375 462.91015625 C-85.90609375 461.26015625 -86.56609375 459.61015625 -87.24609375 457.91015625 C-87.90609375 457.91015625 -88.56609375 457.91015625 -89.24609375 457.91015625 C-91.95967353 453.46776355 -91.67438415 448.88069489 -91.90234375 443.80859375 C-91.95763444 440.78601048 -91.95763444 440.78601048 -94.24609375 438.91015625 C-96.88048725 438.62886159 -96.88048725 438.62886159 -99.80859375 438.72265625 C-100.79988281 438.72910156 -101.79117187 438.73554688 -102.8125 438.7421875 C-105.19375247 438.63890191 -105.19375247 438.63890191 -106.24609375 439.91015625 C-108.59596637 440.14543398 -110.95165414 440.32402042 -113.30859375 440.47265625 C-115.24412109 440.59833984 -115.24412109 440.59833984 -117.21875 440.7265625 C-118.21777344 440.78714844 -119.21679688 440.84773438 -120.24609375 440.91015625 C-120.24609375 441.57015625 -120.24609375 442.23015625 -120.24609375 442.91015625 C-121.56609375 442.91015625 -122.88609375 442.91015625 -124.24609375 442.91015625 C-124.24609375 443.57015625 -124.24609375 444.23015625 -124.24609375 444.91015625 C-124.82053223 445.05114746 -125.3949707 445.19213867 -125.98681641 445.33740234 C-128.61553906 445.98412214 -131.24331613 446.63460769 -133.87109375 447.28515625 C-134.77472656 447.506875 -135.67835938 447.72859375 -136.609375 447.95703125 C-140.34562769 448.88427644 -144.00019746 449.8259297 -147.64453125 451.07421875 C-150.24609375 451.91015625 -150.24609375 451.91015625 -154.24609375 451.91015625 C-154.24609375 452.57015625 -154.24609375 453.23015625 -154.24609375 453.91015625 C-155.39271484 454.14798828 -155.39271484 454.14798828 -156.5625 454.390625 C-164.2876743 456.07324419 -171.58900874 458.27453 -179.03125 460.921875 C-182.24609375 461.91015625 -182.24609375 461.91015625 -186.24609375 461.91015625 C-186.24609375 462.57015625 -186.24609375 463.23015625 -186.24609375 463.91015625 C-186.79958496 464.0302002 -187.35307617 464.15024414 -187.92333984 464.27392578 C-202.92690297 467.53303355 -202.92690297 467.53303355 -216.24609375 474.91015625 C-217.36767654 475.66525694 -218.4922776 476.41591227 -219.62109375 477.16015625 C-220.48734375 477.73765625 -221.35359375 478.31515625 -222.24609375 478.91015625 C-226.7994141 481.57901419 -231.09244413 481.4328719 -236.24609375 480.91015625 C-240.96185172 479.2196015 -243.96392486 476.67499704 -247.24609375 472.91015625 C-247.24609375 472.25015625 -247.24609375 471.59015625 -247.24609375 470.91015625 C-247.90609375 470.91015625 -248.56609375 470.91015625 -249.24609375 470.91015625 C-250.45530433 467.28252452 -250.4301479 463.93681308 -250.43359375 460.16015625 C-250.44583984 459.46921875 -250.45808594 458.77828125 -250.47070312 458.06640625 C-250.48409975 453.3150686 -249.74024231 449.42213054 -248.24609375 444.91015625 C-247.58609375 444.91015625 -246.92609375 444.91015625 -246.24609375 444.91015625 C-246.10171875 443.83765625 -245.95734375 442.76515625 -245.80859375 441.66015625 C-245.40859933 438.99352676 -244.97017451 436.49615896 -244.24609375 433.91015625 C-243.58609375 433.91015625 -242.92609375 433.91015625 -242.24609375 433.91015625 C-242.14296875 432.89953125 -242.03984375 431.88890625 -241.93359375 430.84765625 C-241.07281615 425.9177482 -239.98295612 421.53846472 -236.24609375 418.03515625 C-233.25018449 414.85200266 -232.41561898 411.05665478 -231.24609375 406.91015625 C-231.86484375 407.36390625 -232.48359375 407.81765625 -233.12109375 408.28515625 C-236.68438019 410.1380652 -239.84328033 410.68366052 -243.765625 411.37890625 C-247.13402297 412.10032692 -250.09500756 413.53513682 -253.24609375 414.91015625 C-255.46995265 415.40739231 -257.68732163 415.82829721 -259.9375 416.1875 C-266.78232303 418.3301265 -272.77007954 424.29786759 -278.37109375 428.59765625 C-280.24464663 430.02883572 -282.11834381 431.4598263 -283.9921875 432.890625 C-286.44963173 434.76964022 -288.90651374 436.64933307 -291.35986328 438.53369141 C-293.04806974 439.82988985 -294.74018085 441.12077339 -296.43359375 442.41015625 C-297.33464844 443.10109375 -298.23570312 443.79203125 -299.1640625 444.50390625 C-301.24609375 445.91015625 -301.24609375 445.91015625 -303.24609375 445.91015625 C-303.24609375 446.57015625 -303.24609375 447.23015625 -303.24609375 447.91015625 C-305.27380677 449.64098596 -307.30213966 451.25423911 -309.43359375 452.84765625 C-310.01173828 453.29044922 -310.58988281 453.73324219 -311.18554688 454.18945312 C-314.4351278 456.65325968 -317.73858431 458.82309469 -321.24609375 460.91015625 C-323.66739706 463.33145956 -323.77449879 464.71127002 -324.37109375 468.03515625 C-324.53867187 468.94523437 -324.70625 469.8553125 -324.87890625 470.79296875 C-325.00007812 471.49164063 -325.12125 472.1903125 -325.24609375 472.91015625 C-325.90609375 472.91015625 -326.56609375 472.91015625 -327.24609375 472.91015625 C-327.57609375 474.23015625 -327.90609375 475.55015625 -328.24609375 476.91015625 C-328.90609375 476.91015625 -329.56609375 476.91015625 -330.24609375 476.91015625 C-330.58640625 477.99296875 -330.58640625 477.99296875 -330.93359375 479.09765625 C-333.1257426 483.79511808 -336.96592036 487.0794742 -341.24609375 489.91015625 C-343.18883011 490.52436398 -345.14953043 491.08344444 -347.12109375 491.59765625 C-352.6901915 493.32950982 -355.17503575 495.34367206 -358.16015625 500.30078125 C-358.51851562 500.831875 -358.876875 501.36296875 -359.24609375 501.91015625 C-359.90609375 501.91015625 -360.56609375 501.91015625 -361.24609375 501.91015625 C-361.34921875 502.50828125 -361.45234375 503.10640625 -361.55859375 503.72265625 C-362.34936165 506.23873593 -363.33038012 507.14769971 -365.24609375 508.91015625 C-365.90609375 509.90015625 -366.56609375 510.89015625 -367.24609375 511.91015625 C-367.90609375 511.91015625 -368.56609375 511.91015625 -369.24609375 511.91015625 C-369.47296875 512.79703125 -369.69984375 513.68390625 -369.93359375 514.59765625 C-371.44218434 518.40505156 -373.30245776 520.1066934 -376.24609375 522.91015625 C-376.96796875 524.00328125 -377.68984375 525.09640625 -378.43359375 526.22265625 C-379.03171875 527.10953125 -379.62984375 527.99640625 -380.24609375 528.91015625 C-380.90609375 528.91015625 -381.56609375 528.91015625 -382.24609375 528.91015625 C-382.49359375 529.79703125 -382.74109375 530.68390625 -382.99609375 531.59765625 C-384.7832331 536.33357552 -387.72657845 539.39064095 -391.24609375 542.91015625 C-391.90609375 543.90015625 -392.56609375 544.89015625 -393.24609375 545.91015625 C-393.90609375 545.91015625 -394.56609375 545.91015625 -395.24609375 545.91015625 C-395.51421875 546.67328125 -395.78234375 547.43640625 -396.05859375 548.22265625 C-397.22119105 550.85379751 -398.21900838 551.96753277 -400.24609375 553.91015625 C-401.42184086 556.01005277 -401.42184086 556.01005277 -402.24609375 557.91015625 C-402.90609375 557.91015625 -403.56609375 557.91015625 -404.24609375 557.91015625 C-404.40078125 558.80734375 -404.40078125 558.80734375 -404.55859375 559.72265625 C-405.35745026 562.26447242 -406.3468092 563.08392111 -408.24609375 564.91015625 C-408.76171875 565.79703125 -409.27734375 566.68390625 -409.80859375 567.59765625 C-410.28296875 568.36078125 -410.75734375 569.12390625 -411.24609375 569.91015625 C-411.90609375 569.91015625 -412.56609375 569.91015625 -413.24609375 569.91015625 C-413.51164062 570.63976562 -413.7771875 571.369375 -414.05078125 572.12109375 C-415.24326075 574.90354591 -416.60719913 577.08211211 -418.37109375 579.53515625 C-418.99113281 580.40398438 -419.61117187 581.2728125 -420.25 582.16796875 C-421.58434617 584.00106271 -422.92554721 585.82918579 -424.2734375 587.65234375 C-428.20662378 592.98215088 -431.7952787 598.31832922 -435.01953125 604.109375 C-435.42429687 604.70363281 -435.8290625 605.29789063 -436.24609375 605.91015625 C-436.90609375 605.91015625 -437.56609375 605.91015625 -438.24609375 605.91015625 C-438.35179687 606.45285156 -438.4575 606.99554687 -438.56640625 607.5546875 C-439.40743759 610.46929609 -440.68695603 612.92559368 -442.12109375 615.59765625 C-442.89066406 617.05751953 -442.89066406 617.05751953 -443.67578125 618.546875 C-445.24609375 620.91015625 -445.24609375 620.91015625 -448.24609375 621.91015625 C-448.930961 623.23423294 -449.59479578 624.56924866 -450.24609375 625.91015625 C-452.24609375 628.16015625 -452.24609375 628.16015625 -454.24609375 629.91015625 C-454.90609375 629.91015625 -455.56609375 629.91015625 -456.24609375 629.91015625 C-456.43171875 630.61140625 -456.61734375 631.31265625 -456.80859375 632.03515625 C-458.49748065 635.41293004 -460.42817415 636.90705653 -463.31640625 639.25 C-470.97355557 645.83762846 -477.61734851 654.50840722 -481.24609375 663.91015625 C-483.30816118 668.76355886 -485.37882471 673.46588924 -488.24609375 677.91015625 C-490.55609375 677.58015625 -492.86609375 677.25015625 -495.24609375 676.91015625 C-497.61023549 671.30591587 -497.57868739 666.07350367 -497.55859375 660.09765625 C-497.57470703 659.15083984 -497.59082031 658.20402344 -497.60742188 657.22851562 C-497.6117756 650.90254645 -496.65215403 645.75428977 -494.24609375 639.91015625 C-493.86066406 638.97042969 -493.47523438 638.03070312 -493.078125 637.0625 C-492.74167969 636.33160156 -492.40523437 635.60070312 -492.05859375 634.84765625 C-491.71441406 634.09355469 -491.37023437 633.33945312 -491.015625 632.5625 C-490.63470703 631.74458984 -490.63470703 631.74458984 -490.24609375 630.91015625 C-489.58609375 630.91015625 -488.92609375 630.91015625 -488.24609375 630.91015625 C-487.97796875 629.98203125 -487.70984375 629.05390625 -487.43359375 628.09765625 C-486.29941075 625.0532703 -485.54925217 624.01304003 -483.24609375 621.91015625 C-482.91609375 620.92015625 -482.58609375 619.93015625 -482.24609375 618.91015625 C-483.27734375 619.42578125 -484.30859375 619.94140625 -485.37109375 620.47265625 C-488.97661749 622.04410651 -491.40287818 621.94126287 -495.24609375 620.91015625 C-496.23505797 615.27306021 -496.50224917 611.34543976 -494.24609375 605.91015625 C-491.63531188 602.8307725 -490.08336103 601.18924534 -486.24609375 599.91015625 C-486.24609375 599.25015625 -486.24609375 598.59015625 -486.24609375 597.91015625 C-481.49259195 594.07954177 -475.98311036 591.81451041 -470.24609375 589.91015625 C-469.23546875 589.53890625 -468.22484375 589.16765625 -467.18359375 588.78515625 C-464.24609375 587.91015625 -464.24609375 587.91015625 -460.87109375 587.72265625 C-455.78768871 586.58327236 -452.69353337 583.738003 -449.24609375 579.91015625 C-448.56828052 578.58245468 -447.90097338 577.24931826 -447.24609375 575.91015625 C-446.26986194 574.88694002 -445.26919087 573.88651289 -444.24609375 572.91015625 C-443.34464381 571.76380372 -442.46922491 570.59649922 -441.62109375 569.41015625 C-441.19570313 568.82234375 -440.7703125 568.23453125 -440.33203125 567.62890625 C-439.07173058 565.78604874 -439.07173058 565.78604874 -438.24609375 562.91015625 C-437.58609375 562.58015625 -436.92609375 562.25015625 -436.24609375 561.91015625 C-435.11258841 559.89345798 -435.11258841 559.89345798 -434.24609375 557.91015625 C-433.58609375 557.91015625 -432.92609375 557.91015625 -432.24609375 557.91015625 C-431.58609375 555.93015625 -430.92609375 553.95015625 -430.24609375 551.91015625 C-429.58609375 551.91015625 -428.92609375 551.91015625 -428.24609375 551.91015625 C-427.97796875 550.94078125 -427.70984375 549.97140625 -427.43359375 548.97265625 C-427.04171875 547.96203125 -426.64984375 546.95140625 -426.24609375 545.91015625 C-425.25609375 545.58015625 -424.26609375 545.25015625 -423.24609375 544.91015625 C-422.54503532 543.25766138 -421.88809024 541.58648042 -421.24609375 539.91015625 C-420.44327929 538.45539179 -419.60762888 537.01843347 -418.74609375 535.59765625 C-418.32328125 534.90027344 -417.90046875 534.20289063 -417.46484375 533.484375 C-417.06265625 532.96488281 -416.66046875 532.44539062 -416.24609375 531.91015625 C-415.58609375 531.91015625 -414.92609375 531.91015625 -414.24609375 531.91015625 C-414.03984375 531.25015625 -413.83359375 530.59015625 -413.62109375 529.91015625 C-412.09263982 526.57534768 -410.148279 524.05866823 -407.90234375 521.1796875 C-405.49918932 517.8866858 -403.53368352 514.36972509 -401.54296875 510.81640625 C-401.115 510.18734375 -400.68703125 509.55828125 -400.24609375 508.91015625 C-399.58609375 508.91015625 -398.92609375 508.91015625 -398.24609375 508.91015625 C-397.99859375 508.02328125 -397.75109375 507.13640625 -397.49609375 506.22265625 C-396.20076546 502.79003627 -394.62212462 500.66941791 -392.24609375 497.91015625 C-391.91609375 497.25015625 -391.58609375 496.59015625 -391.24609375 495.91015625 C-390.58609375 495.91015625 -389.92609375 495.91015625 -389.24609375 495.91015625 C-388.97796875 494.98203125 -388.70984375 494.05390625 -388.43359375 493.09765625 C-387.25967938 489.94662293 -386.55021261 489.13482274 -384.24609375 486.91015625 C-382.92599381 485.08081895 -381.67825049 483.2146164 -380.4296875 481.3359375 C-379.84380859 480.63017578 -379.84380859 480.63017578 -379.24609375 479.91015625 C-378.58609375 479.91015625 -377.92609375 479.91015625 -377.24609375 479.91015625 C-377.17261719 478.73259766 -377.17261719 478.73259766 -377.09765625 477.53125 C-376.68409015 471.71993322 -376.12827227 466.43121325 -374.24609375 460.91015625 C-373.58609375 460.91015625 -372.92609375 460.91015625 -372.24609375 460.91015625 C-372.00761719 460.17152344 -371.76914062 459.43289063 -371.5234375 458.671875 C-370.05674931 455.50077852 -368.45938547 453.97299996 -365.80859375 451.72265625 C-364.63490234 450.71138672 -364.63490234 450.71138672 -363.4375 449.6796875 C-360.22152509 447.08283076 -357.79112419 445.73048319 -353.80859375 444.84765625 C-347.46606184 443.0092412 -342.93408311 439.3026108 -337.85644531 435.19677734 C-336.1820214 433.85896443 -334.48168442 432.56254893 -332.76953125 431.2734375 C-332.19178955 430.83717041 -331.61404785 430.40090332 -331.01879883 429.95141602 C-330.45443115 429.52530029 -329.89006348 429.09918457 -329.30859375 428.66015625 C-325.31487974 425.63146607 -321.74553134 422.49578689 -318.24609375 418.91015625 C-316.88561705 417.64436474 -315.5117774 416.39268372 -314.12109375 415.16015625 C-313.12722656 414.27070312 -313.12722656 414.27070312 -312.11328125 413.36328125 C-310.24609375 411.91015625 -310.24609375 411.91015625 -307.24609375 410.91015625 C-306.03727279 408.90999159 -306.03727279 408.90999159 -305.24609375 406.91015625 C-304.58609375 406.91015625 -303.92609375 406.91015625 -303.24609375 406.91015625 C-302.90578125 405.82734375 -302.90578125 405.82734375 -302.55859375 404.72265625 C-300.98274247 401.34583208 -299.03732759 399.35248586 -296.24609375 396.91015625 C-295.58609375 396.91015625 -294.92609375 396.91015625 -294.24609375 396.91015625 C-293.97796875 395.94078125 -293.70984375 394.97140625 -293.43359375 393.97265625 C-293.04171875 392.96203125 -292.64984375 391.95140625 -292.24609375 390.91015625 C-291.25609375 390.58015625 -290.26609375 390.25015625 -289.24609375 389.91015625 C-288.91609375 387.60015625 -288.58609375 385.29015625 -288.24609375 382.91015625 C-288.85453125 382.884375 -289.46296875 382.85859375 -290.08984375 382.83203125 C-298.77436832 382.27009142 -306.87973038 380.16707987 -315.24609375 377.91015625 C-315.24609375 377.25015625 -315.24609375 376.59015625 -315.24609375 375.91015625 C-316.54546875 375.78640625 -317.84484375 375.66265625 -319.18359375 375.53515625 C-323.96459327 375.01152297 -328.57723476 374.0470179 -333.24609375 372.91015625 C-333.24609375 372.25015625 -333.24609375 371.59015625 -333.24609375 370.91015625 C-333.98214844 370.77738281 -334.71820313 370.64460938 -335.4765625 370.5078125 C-336.45238281 370.33121094 -337.42820312 370.15460938 -338.43359375 369.97265625 C-339.87798828 369.71162109 -339.87798828 369.71162109 -341.3515625 369.4453125 C-343.98849347 368.95778275 -346.61808425 368.4434452 -349.24609375 367.91015625 C-349.57609375 366.92015625 -349.90609375 365.93015625 -350.24609375 364.91015625 C-352.84023453 363.96548626 -355.337806 363.18168899 -357.99609375 362.47265625 C-363.34688318 361.04353353 -367.01319563 359.66847989 -371.24609375 355.91015625 C-373.92555825 354.66998956 -373.92555825 354.66998956 -376.24609375 353.91015625 C-376.24609375 353.25015625 -376.24609375 352.59015625 -376.24609375 351.91015625 C-376.94734375 351.68328125 -377.64859375 351.45640625 -378.37109375 351.22265625 C-381.24609375 349.91015625 -381.24609375 349.91015625 -383.87109375 347.41015625 C-387.63297343 344.20483976 -391.32098714 343.93529087 -396.12109375 343.59765625 C-396.90484375 343.52482422 -397.68859375 343.45199219 -398.49609375 343.37695312 C-400.41107272 343.20180261 -402.32845158 343.053232 -404.24609375 342.91015625 C-404.57609375 343.90015625 -404.90609375 344.89015625 -405.24609375 345.91015625 C-406.32246094 346.008125 -407.39882813 346.10609375 -408.5078125 346.20703125 C-420.83090616 347.42871115 -431.81363089 350.24829522 -443.22265625 355.17578125 C-445.24609375 355.91015625 -445.24609375 355.91015625 -448.24609375 355.91015625 C-448.24609375 356.57015625 -448.24609375 357.23015625 -448.24609375 357.91015625 C-450.49273637 359.2287072 -452.74306681 360.54009597 -454.99609375 361.84765625 C-455.6303125 362.22083984 -456.26453125 362.59402344 -456.91796875 362.97851562 C-460.00901007 364.76552389 -462.76077043 366.15900898 -466.24609375 366.91015625 C-466.24609375 367.57015625 -466.24609375 368.23015625 -466.24609375 368.91015625 C-468.88609375 368.91015625 -471.52609375 368.91015625 -474.24609375 368.91015625 C-475.96526133 365.47182109 -475.47307733 361.6367339 -475.49609375 357.84765625 C-475.51671875 357.02587891 -475.53734375 356.20410156 -475.55859375 355.35742188 C-475.59641064 349.3492642 -474.46137072 344.47704031 -472.24609375 338.91015625 C-471.85421875 337.89953125 -471.46234375 336.88890625 -471.05859375 335.84765625 C-470.79046875 335.20828125 -470.52234375 334.56890625 -470.24609375 333.91015625 C-473.68402714 334.0914544 -473.68402714 334.0914544 -477.24609375 334.91015625 C-478.29630478 336.75987321 -478.29630478 336.75987321 -479.24609375 338.91015625 C-480.88736865 339.78103681 -482.52935479 340.65061704 -484.17578125 341.51171875 C-487.74402838 343.9219687 -490.34446272 347.22370873 -493.1328125 350.47265625 C-498.66061018 356.8485264 -498.66061018 356.8485264 -502.80859375 357.28515625 C-506.24609375 356.91015625 -506.24609375 356.91015625 -509.24609375 354.91015625 C-513.01695079 345.38492779 -510.14970161 332.76639578 -506.62109375 323.53515625 C-505.06876663 320.08882675 -505.06876663 320.08882675 -505.24609375 316.91015625 C-510.52609375 317.90015625 -515.80609375 318.89015625 -521.24609375 319.91015625 C-521.57609375 320.90015625 -521.90609375 321.89015625 -522.24609375 322.91015625 C-523.89609375 323.24015625 -525.54609375 323.57015625 -527.24609375 323.91015625 C-527.24609375 324.57015625 -527.24609375 325.23015625 -527.24609375 325.91015625 C-530.62109375 326.03515625 -530.62109375 326.03515625 -534.24609375 325.91015625 C-536.24609375 323.91015625 -536.24609375 323.91015625 -536.328125 321.37109375 C-535.77786088 315.07096837 -534.95910537 309.63762522 -532.24609375 303.91015625 C-531.94574219 303.26691406 -531.64539063 302.62367188 -531.3359375 301.9609375 C-528.84754178 296.83302891 -526.05476701 291.8677473 -523.24609375 286.91015625 C-522.68921875 285.89953125 -522.13234375 284.88890625 -521.55859375 283.84765625 C-521.12546875 283.20828125 -520.69234375 282.56890625 -520.24609375 281.91015625 C-519.58609375 281.91015625 -518.92609375 281.91015625 -518.24609375 281.91015625 C-517.87484375 281.07484375 -517.87484375 281.07484375 -517.49609375 280.22265625 C-514.5584843 274.78807877 -510.55999964 270.98593922 -505.24609375 267.91015625 C-504.58609375 267.91015625 -503.92609375 267.91015625 -503.24609375 267.91015625 C-503.24609375 267.25015625 -503.24609375 266.59015625 -503.24609375 265.91015625 C-502.58609375 265.91015625 -501.92609375 265.91015625 -501.24609375 265.91015625 C-500.58609375 264.59015625 -499.92609375 263.27015625 -499.24609375 261.91015625 C-498.25609375 261.91015625 -497.26609375 261.91015625 -496.24609375 261.91015625 C-496.24609375 261.25015625 -496.24609375 260.59015625 -496.24609375 259.91015625 C-494.59609375 259.58015625 -492.94609375 259.25015625 -491.24609375 258.91015625 C-491.24609375 258.25015625 -491.24609375 257.59015625 -491.24609375 256.91015625 C-489.92609375 256.91015625 -488.60609375 256.91015625 -487.24609375 256.91015625 C-487.24609375 256.25015625 -487.24609375 255.59015625 -487.24609375 254.91015625 C-475.85864844 249.79010842 -464.75144246 248.62492149 -452.37109375 248.53515625 C-451.3135791 248.52137939 -450.25606445 248.50760254 -449.16650391 248.4934082 C-440.96124816 248.54187207 -434.15922498 250.10515554 -426.93359375 254.03515625 C-424.38519113 255.41353754 -422.08303573 256.29642487 -419.24609375 256.91015625 C-419.24609375 255.92015625 -419.24609375 254.93015625 -419.24609375 253.91015625 C-420.23609375 253.58015625 -421.22609375 253.25015625 -422.24609375 252.91015625 C-422.74109375 250.43515625 -422.74109375 250.43515625 -423.24609375 247.91015625 C-423.90609375 247.91015625 -424.56609375 247.91015625 -425.24609375 247.91015625 C-425.49609375 242.28515625 -425.49609375 242.28515625 -423.24609375 238.91015625 C-421.3356781 238.52488708 -421.3356781 238.52488708 -418.97436523 238.50952148 C-418.08841171 238.49618271 -417.20245819 238.48284393 -416.28965759 238.46910095 C-415.32524246 238.46898514 -414.36082733 238.46886932 -413.3671875 238.46875 C-412.36712173 238.45554214 -411.36705597 238.44233429 -410.33668518 238.4287262 C-407.11896153 238.38772385 -403.90151955 238.36618465 -400.68359375 238.34765625 C-396.49460532 238.31586066 -392.30593372 238.27400333 -388.1171875 238.21875 C-387.09861664 238.20532562 -386.08004578 238.19190125 -385.03060913 238.17807007 C-377.46380741 238.0344309 -370.08577459 237.37983321 -362.59399414 236.33227539 C-359.75740639 235.97462497 -357.09815133 235.82536075 -354.24609375 235.91015625 C-354.24609375 235.25015625 -354.24609375 234.59015625 -354.24609375 233.91015625 C-353.68921875 233.80058594 -353.13234375 233.69101562 -352.55859375 233.578125 C-347.22483501 232.4699285 -342.2893863 230.95654768 -337.24609375 228.91015625 C-336.44171875 228.60078125 -335.63734375 228.29140625 -334.80859375 227.97265625 C-333.20932639 227.30954539 -331.61971607 226.62200026 -330.046875 225.8984375 C-329.24636719 225.53105469 -328.44585937 225.16367187 -327.62109375 224.78515625 C-326.48800781 224.25535156 -326.48800781 224.25535156 -325.33203125 223.71484375 C-323.24609375 222.91015625 -323.24609375 222.91015625 -320.24609375 222.91015625 C-320.24609375 222.25015625 -320.24609375 221.59015625 -320.24609375 220.91015625 C-319.60671875 220.78640625 -318.96734375 220.66265625 -318.30859375 220.53515625 C-317.62796875 220.32890625 -316.94734375 220.12265625 -316.24609375 219.91015625 C-315.91609375 219.25015625 -315.58609375 218.59015625 -315.24609375 217.91015625 C-313.42016602 216.94873047 -313.42016602 216.94873047 -311.0625 215.96484375 C-310.21751953 215.61035156 -309.37253906 215.25585938 -308.50195312 214.890625 C-307.61314453 214.52582031 -306.72433594 214.16101563 -305.80859375 213.78515625 C-304.92365234 213.41261719 -304.03871094 213.04007813 -303.12695312 212.65625 C-296.52325149 209.91015625 -296.52325149 209.91015625 -294.24609375 209.91015625 C-294.24609375 209.25015625 -294.24609375 208.59015625 -294.24609375 207.91015625 C-293.11429688 207.51183594 -291.9825 207.11351562 -290.81640625 206.703125 C-289.33444592 206.16849374 -287.85268532 205.63330859 -286.37109375 205.09765625 C-285.62472656 204.83662109 -284.87835938 204.57558594 -284.109375 204.30664062 C-283.39394531 204.04560547 -282.67851562 203.78457031 -281.94140625 203.515625 C-281.28156738 203.27996826 -280.62172852 203.04431152 -279.94189453 202.80151367 C-277.89128801 201.89623726 -277.89128801 201.89623726 -276.24609375 198.91015625 C-273.53786035 197.79191794 -270.89853796 196.81707681 -268.12109375 195.91015625 C-266.63905734 195.41094399 -265.15728525 194.91094633 -263.67578125 194.41015625 C-262.94456055 194.16652344 -262.21333984 193.92289063 -261.45996094 193.671875 C-259.22502303 192.90290651 -257.02198564 192.07179933 -254.81640625 191.22265625 C-251.24609375 189.91015625 -251.24609375 189.91015625 -249.24609375 189.91015625 C-249.24609375 189.25015625 -249.24609375 188.59015625 -249.24609375 187.91015625 C-245.36925288 186.71728214 -242.32987452 185.91015625 -238.24609375 185.91015625 C-238.24609375 185.25015625 -238.24609375 184.59015625 -238.24609375 183.91015625 C-237.32497803 183.75196411 -237.32497803 183.75196411 -236.38525391 183.59057617 C-233.54606718 183.09925024 -230.70861588 182.59850258 -227.87109375 182.09765625 C-226.42283203 181.84918945 -226.42283203 181.84918945 -224.9453125 181.59570312 C-219.29191352 180.59023284 -213.90880052 179.25952301 -208.43115234 177.5456543 C-188.41492674 171.7241755 -162.60808375 175.82231653 -142.24609375 177.91015625 C-142.24609375 178.57015625 -142.24609375 179.23015625 -142.24609375 179.91015625 C-140.98796875 180.00941406 -139.72984375 180.10867187 -138.43359375 180.2109375 C-132.81299563 180.84094586 -127.61927557 182.37957394 -122.24609375 184.09765625 C-120.84617187 184.5162793 -120.84617187 184.5162793 -119.41796875 184.94335938 C-113.69837852 186.75269902 -109.06845229 189.02872922 -104.21264648 192.56079102 C-102.28873643 193.88089665 -100.46544378 194.78487673 -98.30859375 195.66015625 C-95.24609375 196.91015625 -95.24609375 196.91015625 -93.24609375 198.91015625 C-91.58536526 199.59148076 -89.91832675 200.25757752 -88.24609375 200.91015625 C-87.25609375 201.57015625 -86.26609375 202.23015625 -85.24609375 202.91015625 C-85.24609375 203.57015625 -85.24609375 204.23015625 -85.24609375 204.91015625 C-84.27671875 205.03390625 -83.30734375 205.15765625 -82.30859375 205.28515625 C-81.29796875 205.49140625 -80.28734375 205.69765625 -79.24609375 205.91015625 C-78.91609375 206.57015625 -78.58609375 207.23015625 -78.24609375 207.91015625 C-71.3296901 212.6950896 -64.54704319 214.06644686 -56.24609375 212.91015625 C-55.62476563 212.575 -55.0034375 212.23984375 -54.36328125 211.89453125 C-51.16870306 210.40922921 -48.24136439 210.68481375 -44.74609375 210.72265625 C-42.7815625 210.73232422 -42.7815625 210.73232422 -40.77734375 210.7421875 C-37.24609375 210.91015625 -37.24609375 210.91015625 -35.31713867 211.41235352 C-33.00588631 211.96789325 -30.95402479 212.03962544 -28.578125 212.04296875 C-27.68416016 212.04425781 -26.79019531 212.04554688 -25.86914062 212.046875 C-24.47791992 212.04107422 -24.47791992 212.04107422 -23.05859375 212.03515625 C-22.15044922 212.03902344 -21.24230469 212.04289063 -20.30664062 212.046875 C-14.54186895 212.03862193 -8.96394323 211.64605925 -3.24609375 210.91015625 C-3.24609375 210.25015625 -3.24609375 209.59015625 -3.24609375 208.91015625 C-1.99892578 208.31267578 -1.99892578 208.31267578 -0.7265625 207.703125 C0.36011719 207.17332031 1.44679688 206.64351562 2.56640625 206.09765625 C3.64535156 205.57558594 4.72429688 205.05351562 5.8359375 204.515625 C8.35110212 203.1317794 9.81742414 201.94437878 11.75390625 199.91015625 C12.41390625 199.91015625 13.07390625 199.91015625 13.75390625 199.91015625 C14.15802734 199.04197266 14.15802734 199.04197266 14.5703125 198.15625 C15.76676549 195.8857534 17.11696529 193.99579285 18.69140625 191.97265625 C28.24162425 179.68682593 27.83653489 164.52134842 26.44140625 149.55859375 C25.55731051 143.82775885 23.81163582 139.80252357 20.75390625 134.91015625 C20.75390625 133.92015625 20.75390625 132.93015625 20.75390625 131.91015625 C19.76390625 131.58015625 18.77390625 131.25015625 17.75390625 130.91015625 C16.41494993 129.24800357 15.08260483 127.58052018 13.75390625 125.91015625 C12.68935687 124.9920805 11.60539385 124.09607112 10.50390625 123.22265625 C9.59640625 122.45953125 8.68890625 121.69640625 7.75390625 120.91015625 C7.75390625 120.25015625 7.75390625 119.59015625 7.75390625 118.91015625 C6.78453125 118.62140625 5.81515625 118.33265625 4.81640625 118.03515625 C1.75390625 116.91015625 1.75390625 116.91015625 0.75390625 114.91015625 C-0.20515625 114.44609375 -0.20515625 114.44609375 -1.18359375 113.97265625 C-3.24609375 112.91015625 -3.24609375 112.91015625 -5.24609375 109.91015625 C-7.2961333 108.71783012 -7.2961333 108.71783012 -9.24609375 107.91015625 C-9.24609375 107.25015625 -9.24609375 106.59015625 -9.24609375 105.91015625 C-9.98859375 105.66265625 -10.73109375 105.41515625 -11.49609375 105.16015625 C-14.47632462 103.80550586 -16.14528627 102.40000215 -18.24609375 99.91015625 C-18.24609375 99.25015625 -18.24609375 98.59015625 -18.24609375 97.91015625 C-19.56609375 97.25015625 -20.88609375 96.59015625 -22.24609375 95.91015625 C-22.24609375 95.25015625 -22.24609375 94.59015625 -22.24609375 93.91015625 C-22.81972656 93.67167969 -23.39335938 93.43320313 -23.984375 93.1875 C-26.71547992 91.64506251 -28.37087572 89.82949543 -30.43359375 87.47265625 C-31.12839844 86.69019531 -31.82320312 85.90773438 -32.5390625 85.1015625 C-34.24609375 82.91015625 -34.24609375 82.91015625 -35.24609375 79.91015625 C-35.90609375 79.58015625 -36.56609375 79.25015625 -37.24609375 78.91015625 C-38.24609375 77.203125 -38.24609375 77.203125 -39.24609375 75.09765625 C-39.57609375 74.41058594 -39.90609375 73.72351563 -40.24609375 73.015625 C-40.57609375 72.32082031 -40.90609375 71.62601562 -41.24609375 70.91015625 C-41.61734375 70.24628906 -41.98859375 69.58242187 -42.37109375 68.8984375 C-43.24609375 66.91015625 -43.24609375 66.91015625 -43.24609375 62.91015625 C-43.90609375 62.91015625 -44.56609375 62.91015625 -45.24609375 62.91015625 C-47.54046402 55.60823182 -47.54422615 48.64809697 -47.49609375 41.03515625 C-47.50382812 39.81957031 -47.5115625 38.60398438 -47.51953125 37.3515625 C-47.49666385 26.75252472 -46.41746929 18.21863223 -41.24609375 8.91015625 C-40.58609375 8.91015625 -39.92609375 8.91015625 -39.24609375 8.91015625 C-38.99472656 8.32492188 -38.74335937 7.7396875 -38.484375 7.13671875 C-37.09098493 4.63125395 -35.59370543 3.16028187 -33.43359375 1.28515625 C-32.43392578 0.39957031 -32.43392578 0.39957031 -31.4140625 -0.50390625 C-22.34259814 -7.13996846 -9.51956364 -4.61905783 0 0 Z " fill="#020202" transform="translate(616.24609375,37.08984375)"/>
<path d="M0 0 C-0.33 0.99 -0.66 1.98 -1 3 C-5.07467725 4.48882438 -8.66541415 5.26270217 -13 5 C-13 5.66 -13 6.32 -13 7 C-28.27129354 10.67854731 -43.43780655 10.34486532 -59.0625 10.1875 C-61.68293499 10.17242046 -64.3033784 10.15873787 -66.92382812 10.14648438 C-73.28273894 10.11375108 -79.64132902 10.06381292 -86 10 C-86 9.67 -86 9.34 -86 9 C-85.44893082 8.99191315 -84.89786163 8.98382629 -84.33009338 8.97549438 C-78.50428268 8.88827549 -72.67876761 8.78874883 -66.85327148 8.68261719 C-64.68991123 8.64473952 -62.52649676 8.60982162 -60.36303711 8.578125 C-48.58954634 8.4035817 -37.01555737 8.03380843 -25.34350586 6.41552734 C-22.5099731 6.06337891 -19.8485772 5.91634834 -17 6 C-17 5.34 -17 4.68 -17 4 C-16.40832031 3.87882812 -15.81664062 3.75765625 -15.20703125 3.6328125 C-10.17387809 2.56542276 -5.04854633 0 0 0 Z " fill="#5D5D5D" transform="translate(279,267)"/>
<path d="M0 0 C-3.98559417 3.98559417 -9.4281523 4.31859147 -14.83203125 4.8515625 C-16.77239258 5.04492188 -16.77239258 5.04492188 -18.75195312 5.2421875 C-19.41976807 5.3050293 -20.08758301 5.36787109 -20.77563477 5.43261719 C-22.79733074 5.62356726 -24.81754729 5.82653369 -26.83789062 6.03125 C-33.59150266 6.68882971 -40.21490607 7.16421569 -47 7 C-44.50404948 4.50404948 -43.47908778 4.66819846 -40.01953125 4.4375 C-39.01986328 4.36273438 -38.02019531 4.28796875 -36.99023438 4.2109375 C-35.94158203 4.14132812 -34.89292969 4.07171875 -33.8125 4 C-27.25201623 3.55633547 -21.26934171 3.00940439 -15 1 C-10.02174317 0.15568764 -5.04789887 -0.1294333 0 0 Z " fill="#494949" transform="translate(518,424)"/>
<path d="M0 0 C2.31 0 4.62 0 7 0 C6.62834433 5.94649079 4.85341397 10.37830412 1 15 C0.34 15 -0.32 15 -1 15 C-1 16.32 -1 17.64 -1 19 C-1.66 19 -2.32 19 -3 19 C-2.87625 20.1446875 -2.87625 20.1446875 -2.75 21.3125 C-2.8325 22.199375 -2.915 23.08625 -3 24 C-5.015625 25.66796875 -5.015625 25.66796875 -7 27 C-5.50073381 20.03999193 -4.24105229 15.97899968 1 11 C2.26378717 8.06781396 3.17422036 5.08156791 4 2 C3.2575 2.495 2.515 2.99 1.75 3.5 C-1 5 -1 5 -5 5 C-5 4.34 -5 3.68 -5 3 C-3.35 2.67 -1.7 2.34 0 2 C0 1.34 0 0.68 0 0 Z " fill="#2B2B2B" transform="translate(381,442)"/>
<path d="M0 0 C2.64 0.33 5.28 0.66 8 1 C8.38218767 2.65614657 8.71395102 4.32457024 9 6 C4.28769038 10.71230962 -13.66365839 8.06432089 -20.21044922 8.06811523 C-26.47371202 8.06303011 -32.7368511 8.03834822 -39 8 C-39 7.67 -39 7.34 -39 7 C-23.65496837 6.19338293 -8.36559001 5.8603714 7 6 C6.505 5.01 6.505 5.01 6 4 C3.97536745 3.34786708 3.97536745 3.34786708 2 3 C2 2.34 2 1.68 2 1 C1.34 0.67 0.68 0.34 0 0 Z " fill="#5E5E5E" transform="translate(668,74)"/>
<path d="M0 0 C0.66 0.33 1.32 0.66 2 1 C0.18517755 4.99260939 -2.12680664 6.91124855 -5.625 9.375 C-9.40921835 12.18229342 -9.40921835 12.18229342 -11.0625 16.625 C-11.041875 17.73875 -11.02125 18.8525 -11 20 C-11.020625 20.969375 -11.04125 21.93875 -11.0625 22.9375 C-11.041875 23.618125 -11.02125 24.29875 -11 25 C-9.35 25 -7.7 25 -6 25 C-6.33 25.66 -6.66 26.32 -7 27 C-8.98 26.67 -10.96 26.34 -13 26 C-13.98896422 20.36290396 -14.25615542 16.43528351 -12 11 C-9.38921813 7.92061625 -7.83726728 6.27908909 -4 5 C-4 4.34 -4 3.68 -4 3 C-2 1.375 -2 1.375 0 0 Z " fill="#5D5D5D" transform="translate(134,632)"/>
<path d="M0 0 C-7.21513934 4.12061005 -16.85066791 9.10889595 -25.3828125 7.5703125 C-25.91648437 7.38210938 -26.45015625 7.19390625 -27 7 C-25.68 6.67 -24.36 6.34 -23 6 C-23 5.34 -23 4.68 -23 4 C-19.54439134 3.13454045 -16.08515955 2.28456503 -12.625 1.4375 C-11.64015625 1.19064453 -10.6553125 0.94378906 -9.640625 0.68945312 C-8.69960938 0.46064453 -7.75859375 0.23183594 -6.7890625 -0.00390625 C-5.91975098 -0.21861572 -5.05043945 -0.4333252 -4.15478516 -0.65454102 C-2 -1 -2 -1 0 0 Z " fill="#3B3B3B" transform="translate(446,467)"/>
<path d="M0 0 C2.31640625 2.109375 2.31640625 2.109375 4 4 C1.03 3.505 1.03 3.505 -2 3 C-2 2.34 -2 1.68 -2 1 C-10.39966167 -0.59993556 -19.65662197 -0.98352006 -28 1 C-21.36610228 -6.26569751 -8.16766035 -3.54770336 0 0 Z " fill="#2B2B2B" transform="translate(614,36)"/>
<path d="M0 0 C0.66 0 1.32 0 2 0 C2 0.66 2 1.32 2 2 C1.01 2.495 1.01 2.495 0 3 C-0.33 3.99 -0.66 4.98 -1 6 C-1.9590625 6.2165625 -1.9590625 6.2165625 -2.9375 6.4375 C-3.9584375 6.7159375 -3.9584375 6.7159375 -5 7 C-5.67818526 8.32751157 -6.3428399 9.6619556 -7 11 C-8.5859375 12.95703125 -8.5859375 12.95703125 -10.375 14.8125 C-10.96023438 15.43769531 -11.54546875 16.06289063 -12.1484375 16.70703125 C-14 18 -14 18 -16.2265625 17.69921875 C-16.81179688 17.46847656 -17.39703125 17.23773438 -18 17 C-15.05721495 13.96525291 -12.02568744 11.06934208 -8.875 8.25 C-8.21242188 7.65703125 -7.54984375 7.0640625 -6.8671875 6.453125 C-5 5 -5 5 -2 4 C-0.79117904 1.99983534 -0.79117904 1.99983534 0 0 Z " fill="#393939" transform="translate(311,444)"/>
<path d="M0 0 C0.99 0.495 0.99 0.495 2 1 C3.65423749 6.75335518 3.18600964 12.87913545 3.18530273 18.81005859 C3.18748602 20.86186574 3.20566217 22.91313173 3.22460938 24.96484375 C3.22654297 26.27324219 3.22847656 27.58164063 3.23046875 28.9296875 C3.23457764 30.11804199 3.23868652 31.30639648 3.24291992 32.53076172 C2.97649574 36.33567387 2.16590415 39.38243363 1 43 C-0.34331629 40.31336743 0.32748331 38.34070561 0.73339844 35.45166016 C1.24890439 30.71108256 1.14312237 25.95066164 1.125 21.1875 C1.13080078 19.63385742 1.13080078 19.63385742 1.13671875 18.04882812 C1.13478516 16.56092773 1.13478516 16.56092773 1.1328125 15.04296875 C1.13168457 14.14602295 1.13055664 13.24907715 1.12939453 12.32495117 C1.09343802 9.84194402 1.09343802 9.84194402 0 7 C-0.03954234 4.66700175 -0.04401732 2.33291811 0 0 Z " fill="#4A4A4A" transform="translate(674,179)"/>
<path d="M0 0 C0.66 0 1.32 0 2 0 C0.90244618 4.39021526 -0.18541352 7.48176691 -3 11 C-3.350625 11.886875 -3.70125 12.77375 -4.0625 13.6875 C-5 16 -5 16 -7 17 C-8.13350534 19.01669827 -8.13350534 19.01669827 -9 21 C-9.33 21 -9.66 21 -10 21 C-10.61528766 15.92387682 -8.61658349 13.17017994 -6 9 C-5.34 9 -4.68 9 -4 9 C-3.34 7.02 -2.68 5.04 -2 3 C-1.34 3 -0.68 3 0 3 C0 2.01 0 1.02 0 0 Z " fill="#2C2C2C" transform="translate(663,246)"/>
<path d="M0 0 C1.65 0 3.3 0 5 0 C3.02 0.99 3.02 0.99 1 2 C1 2.66 1 3.32 1 4 C-0.65 4.33 -2.3 4.66 -4 5 C-4 5.66 -4 6.32 -4 7 C-4.74765625 7.26554687 -5.4953125 7.53109375 -6.265625 7.8046875 C-7.25046875 8.15789062 -8.2353125 8.51109375 -9.25 8.875 C-10.22453125 9.22304688 -11.1990625 9.57109375 -12.203125 9.9296875 C-14.9468328 10.91837574 -14.9468328 10.91837574 -17.21875 12.15625 C-19.51260226 13.2428116 -20.66240577 12.83485508 -23 12 C-21.02 11.67 -19.04 11.34 -17 11 C-17 10.01 -17 9.02 -17 8 C-12.545 7.505 -12.545 7.505 -8 7 C-8 6.01 -8 5.02 -8 4 C-5.36 3.67 -2.72 3.34 0 3 C0 2.01 0 1.02 0 0 Z " fill="#5E5E5E" transform="translate(543,411)"/>
<path d="M0 0 C12.87 0 25.74 0 39 0 C39 0.66 39 1.32 39 2 C40.65 2 42.3 2 44 2 C44 2.33 44 2.66 44 3 C36.25 3.125 36.25 3.125 34 2 C31.44893971 1.84355828 28.92081337 1.74178611 26.3671875 1.68359375 C25.61535187 1.66281265 24.86351624 1.64203156 24.08889771 1.62062073 C21.68435915 1.55517295 19.27971033 1.49626262 16.875 1.4375 C15.24608229 1.39431023 13.61717578 1.35069579 11.98828125 1.30664062 C7.99230085 1.19949649 3.99620941 1.09821567 0 1 C0 0.67 0 0.34 0 0 Z " fill="#161616" transform="translate(435,215)"/>
<path d="M0 0 C0.66 0.33 1.32 0.66 2 1 C2.02691685 3.45840605 2.04679802 5.91651882 2.0625 8.375 C2.07087891 9.07367188 2.07925781 9.77234375 2.08789062 10.4921875 C2.11328125 15.7734375 2.11328125 15.7734375 1 18 C-4.4611399 17.64766839 -4.4611399 17.64766839 -7 17 C-8.5 14.9375 -8.5 14.9375 -9 13 C-6.36 13.33 -3.72 13.66 -1 14 C0.38226016 11.23547967 0.09525387 8.9538637 0.0625 5.875 C0.05347656 4.77929688 0.04445313 3.68359375 0.03515625 2.5546875 C0.02355469 1.71164062 0.01195312 0.86859375 0 0 Z " fill="#454545" transform="translate(538,483)"/>
<path d="M0 0 C-1.269553 0.64834654 -2.54069706 1.29357815 -3.8125 1.9375 C-4.52019531 2.29714844 -5.22789062 2.65679687 -5.95703125 3.02734375 C-10.10947393 5.00431933 -13.44570476 5.0859301 -18 5 C-18 5.66 -18 6.32 -18 7 C-19.32 6.67 -20.64 6.34 -22 6 C-21.34 6 -20.68 6 -20 6 C-20 5.34 -20 4.68 -20 4 C-16.12315913 2.80712589 -13.08378077 2 -9 2 C-9 1.34 -9 0.68 -9 0 C-5.5657338 -0.85856655 -3.38317487 -0.97591583 0 0 Z " fill="#505050" transform="translate(387,221)"/>
<path d="M0 0 C0 0.66 0 1.32 0 2 C-1.99330842 3.34331654 -3.99384866 4.67594012 -6 6 C-6.99 7.485 -6.99 7.485 -8 9 C-11.52360453 10.43554259 -15.25199465 10.07207703 -19 10 C-19.33 10.99 -19.66 11.98 -20 13 C-21.32 12.67 -22.64 12.34 -24 12 C-21.13707924 9.61642148 -18.8611495 8.532785 -15.25 7.6875 C-10.51243805 6.38396964 -7.32959328 4.35340746 -3.59375 1.20703125 C-2 0 -2 0 0 0 Z " fill="#454545" transform="translate(278,474)"/>
<path d="M0 0 C0.33 0.99 0.66 1.98 1 3 C0.52054932 3.47421387 0.04109863 3.94842773 -0.45288086 4.43701172 C-2.61701838 6.58040335 -4.77729647 8.7276439 -6.9375 10.875 C-7.69224609 11.62136719 -8.44699219 12.36773438 -9.22460938 13.13671875 C-9.94326172 13.85214844 -10.66191406 14.56757812 -11.40234375 15.3046875 C-12.06741943 15.96452637 -12.73249512 16.62436523 -13.41772461 17.30419922 C-15.0813711 18.92673932 -15.0813711 18.92673932 -16 21 C-16.66 20.67 -17.32 20.34 -18 20 C-16.33630564 18.09863501 -14.67246099 16.19740486 -13.0078125 14.296875 C-11.70796248 12.80988704 -10.41089928 11.32045643 -9.1171875 9.828125 C-6.17562591 6.44087226 -3.2396293 3.11004412 0 0 Z " fill="#C6C5C6" transform="translate(159,669)"/>
<path d="M0 0 C0.625 1.8125 0.625 1.8125 1 4 C0.01 5.485 0.01 5.485 -1 7 C-1.66 7 -2.32 7 -3 7 C-3.33 8.65 -3.66 10.3 -4 12 C-4.99 12.33 -5.98 12.66 -7 13 C-7 13.66 -7 14.32 -7 15 C-8.5 16.625 -8.5 16.625 -10 18 C-10.66 17.67 -11.32 17.34 -12 17 C-11.46890625 16.27554688 -10.9378125 15.55109375 -10.390625 14.8046875 C-6.82869216 9.92977941 -3.28595024 5.06583995 0 0 Z " fill="#3C3C3C" transform="translate(214,550)"/>
<path d="M0 0 C0.66 0 1.32 0 2 0 C1.67 1.65 1.34 3.3 1 5 C0.01 5.33 -0.98 5.66 -2 6 C-2.33 7.65 -2.66 9.3 -3 11 C-3.66 11 -4.32 11 -5 11 C-5.4021875 12.2065625 -5.4021875 12.2065625 -5.8125 13.4375 C-6.4003125 14.7059375 -6.4003125 14.7059375 -7 16 C-7.99 16.33 -8.98 16.66 -10 17 C-9.67 15.68 -9.34 14.36 -9 13 C-8.34 13 -7.68 13 -7 13 C-6.7525 12.113125 -6.505 11.22625 -6.25 10.3125 C-4.95467171 6.87988002 -3.37603087 4.75926166 -1 2 C-0.67 1.34 -0.34 0.68 0 0 Z " fill="#505050" transform="translate(225,533)"/>
<path d="M0 0 C5.53905484 -0.1943528 9.66077815 0.34300011 15 2 C17.61618364 2.51297718 20.23567764 2.98682373 22.86328125 3.4375 C25 4 25 4 27 6 C17.64942777 5.60378931 8.98595695 3.42406618 0 1 C0 0.67 0 0.34 0 0 Z " fill="#565656" transform="translate(301,414)"/>
<path d="M0 0 C2.58592942 0.49729412 4.41186554 1.22465393 6.75 2.5 C10.64956059 4.2997972 13.740285 4.63278319 18 5 C18 5.66 18 6.32 18 7 C8.58997722 7.3690205 8.58997722 7.3690205 4 5 C4 4.34 4 3.68 4 3 C2.68 2.67 1.36 2.34 0 2 C0 1.34 0 0.68 0 0 Z " fill="#414141" transform="translate(538,246)"/>
<path d="M0 0 C0 0.33 0 0.66 0 1 C-0.71027344 1.06058594 -1.42054688 1.12117188 -2.15234375 1.18359375 C-3.07144531 1.26738281 -3.99054687 1.35117187 -4.9375 1.4375 C-5.85402344 1.51871094 -6.77054688 1.59992188 -7.71484375 1.68359375 C-9.96159732 1.76044976 -9.96159732 1.76044976 -11 3 C-13.34987262 3.23527773 -15.70556039 3.41386417 -18.0625 3.5625 C-19.35285156 3.64628906 -20.64320313 3.73007812 -21.97265625 3.81640625 C-22.97167969 3.87699219 -23.97070312 3.93757813 -25 4 C-25 3.34 -25 2.68 -25 2 C-16.58481953 0.47983837 -8.5511272 -0.27733386 0 0 Z " fill="#5D5D5D" transform="translate(521,474)"/>
<path d="M0 0 C-1 1 -1 1 -4.0625 1.0625 C-5.031875 1.041875 -6.00125 1.02125 -7 1 C-7 1.66 -7 2.32 -7 3 C-8.7902061 3.67057887 -10.58221489 4.3363469 -12.375 5 C-13.37273437 5.37125 -14.37046875 5.7425 -15.3984375 6.125 C-18 7 -18 7 -20 7 C-20 6.34 -20 5.68 -20 5 C-18.68 5 -17.36 5 -16 5 C-16 4.34 -16 3.68 -16 3 C-5.49579832 -1.83193277 -5.49579832 -1.83193277 0 0 Z " fill="#686868" transform="translate(145,289)"/>
<path d="M0 0 C0.66 0.33 1.32 0.66 2 1 C-0.35661222 5.71322444 -3.72071916 8.99934765 -8 12 C-8.66 12 -9.32 12 -10 12 C-8.52307692 7.32307692 -8.52307692 7.32307692 -5.875 5.6875 C-4.946875 5.3471875 -4.946875 5.3471875 -4 5 C-4 4.34 -4 3.68 -4 3 C-2 1.375 -2 1.375 0 0 Z " fill="#3A3A3A" transform="translate(134,632)"/>
<path d="M0 0 C1.32 0.33 2.64 0.66 4 1 C3.01 1 2.02 1 1 1 C0.67 1.99 0.34 2.98 0 4 C-1.65 4.33 -3.3 4.66 -5 5 C-5 5.66 -5 6.32 -5 7 C-5.639375 7.28875 -6.27875 7.5775 -6.9375 7.875 C-9.15206079 8.82823451 -9.15206079 8.82823451 -10 11 C-12.0625 11.625 -12.0625 11.625 -14 12 C-13.8125 10.125 -13.8125 10.125 -13 8 C-10.625 6.9375 -10.625 6.9375 -8 6 C-7.484375 5.484375 -6.96875 4.96875 -6.4375 4.4375 C-4.69702676 2.69702676 -3.35205707 2.54881332 -1 2 C-0.67 1.34 -0.34 0.68 0 0 Z " fill="#4D4D4D" transform="translate(612,301)"/>
<path d="M0 0 C1.30979218 3.61032461 0.69111399 5.62664358 -0.75 9.125 C-1.09546875 9.99382812 -1.4409375 10.86265625 -1.796875 11.7578125 C-3 14 -3 14 -6 16 C-5.25 9.25 -5.25 9.25 -3 7 C-1.96157435 4.68351201 -0.9578025 2.35096976 0 0 Z " fill="#555555" transform="translate(88,333)"/>
<path d="M0 0 C0.66 0.33 1.32 0.66 2 1 C1.40607459 3.08627605 0.79944242 5.16893738 0.1875 7.25 C-0.31716797 8.99023438 -0.31716797 8.99023438 -0.83203125 10.765625 C-1.89961586 13.72201315 -2.96429083 15.64347706 -5 18 C-4.71311275 10.99995111 -3.49595688 6.08973134 0 0 Z " fill="#656565" transform="translate(575,46)"/>
<path d="M0 0 C-4.66083257 2.18166631 -9.03143702 3.57931811 -14.08203125 4.5703125 C-16.07066232 4.93497189 -16.07066232 4.93497189 -18 6 C-17.40234375 4.11328125 -17.40234375 4.11328125 -16 2 C-13.06640625 0.91796875 -13.06640625 0.91796875 -9.5625 0.1875 C-7.83193359 -0.19341797 -7.83193359 -0.19341797 -6.06640625 -0.58203125 C-3 -1 -3 -1 0 0 Z " fill="#444444" transform="translate(370,449)"/>
<path d="M0 0 C2.1640625 0.36328125 2.1640625 0.36328125 4 1 C2.73861805 2.34227818 1.46555441 3.67358677 0.1875 5 C-0.52019531 5.7425 -1.22789062 6.485 -1.95703125 7.25 C-4 9 -4 9 -7 9 C-5.4404735 5.17207132 -3.16368164 2.63640136 0 0 Z " fill="#262626" transform="translate(584,37)"/>
<path d="M0 0 C2.97 0 5.94 0 9 0 C5.48709741 1.75645129 2.22967081 3.00273072 -1.5 4.1875 C-2.6240625 4.55230469 -3.748125 4.91710937 -4.90625 5.29296875 C-7.85315722 5.96644123 -9.23147346 6.06533987 -12 5 C-8.96474514 2.97649676 -7.80573798 2.67875982 -4.3125 2.375 C-3.50425781 2.30023438 -2.69601562 2.22546875 -1.86328125 2.1484375 C-1.24839844 2.09945313 -0.63351562 2.05046875 0 2 C0 1.34 0 0.68 0 0 Z " fill="#4B4B4B" transform="translate(478,482)"/>
<path d="M0 0 C-0.33 0.99 -0.66 1.98 -1 3 C-6.36363018 5.12310361 -11.28357882 5.23332331 -17 5 C-17 4.67 -17 4.34 -17 4 C-16.11248047 3.81824219 -16.11248047 3.81824219 -15.20703125 3.6328125 C-10.17387809 2.56542276 -5.04854633 0 0 0 Z " fill="#636363" transform="translate(279,267)"/>
<path d="M0 0 C-1.6232687 0.6708712 -3.24867578 1.33657029 -4.875 2 C-5.77992188 2.37125 -6.68484375 2.7425 -7.6171875 3.125 C-10 4 -10 4 -12 4 C-12 4.66 -12 5.32 -12 6 C-16.455 6.495 -16.455 6.495 -21 7 C-17.81825822 4.87883881 -14.5487127 3.34154066 -11.0625 1.8125 C-10.13147461 1.38420898 -10.13147461 1.38420898 -9.18164062 0.94726562 C-5.79238683 -0.53620968 -3.51141889 -1.52249491 0 0 Z " fill="#393939" transform="translate(365,229)"/>
<path d="M0 0 C0.66 0 1.32 0 2 0 C2.20086443 3.71599191 2.1519437 4.77208445 0 8 C-0.29991069 10.58885171 -0.50865225 13.09149082 -0.625 15.6875 C-0.66367187 16.38939453 -0.70234375 17.09128906 -0.7421875 17.81445312 C-0.8362334 19.54254655 -0.9191968 21.27123675 -1 23 C-1.33 23 -1.66 23 -2 23 C-2.05447822 20.47886908 -2.09389852 17.9589415 -2.125 15.4375 C-2.14175781 14.73302734 -2.15851563 14.02855469 -2.17578125 13.30273438 C-2.22022044 8.48108178 -1.52768004 4.57702562 0 0 Z " fill="#3D3D3D" transform="translate(368,482)"/>
<path d="M0 0 C1.98 0 3.96 0 6 0 C5.625 2.9375 5.625 2.9375 5 6 C4.01 6.495 4.01 6.495 3 7 C3.33 5.35 3.66 3.7 4 2 C3.2575 2.495 2.515 2.99 1.75 3.5 C-1 5 -1 5 -5 5 C-5 4.34 -5 3.68 -5 3 C-3.35 2.67 -1.7 2.34 0 2 C0 1.34 0 0.68 0 0 Z " fill="#7E7E7E" transform="translate(381,442)"/>
<path d="M0 0 C0.66 0 1.32 0 2 0 C1.9375 1.75 1.9375 1.75 1 4 C-0.71356371 5.03460451 -2.4339405 6.06296915 -4.2109375 6.984375 C-6.53984884 8.30646441 -8.22520016 10.01222418 -10 12 C-10.33 11.01 -10.66 10.02 -11 9 C-10.01 8.67 -9.02 8.34 -8 8 C-8 7.34 -8 6.68 -8 6 C-6.68 5.67 -5.36 5.34 -4 5 C-4 4.34 -4 3.68 -4 3 C-2.68 3 -1.36 3 0 3 C0 2.01 0 1.02 0 0 Z " fill="#2B2B2B" transform="translate(136,372)"/>
<path d="M0 0 C0 0.99 0 1.98 0 3 C-5.71735105 5.45029331 -9.79029227 6.33266291 -16 6 C-16 5.67 -16 5.34 -16 5 C-11.545 4.505 -11.545 4.505 -7 4 C-7 3.34 -7 2.68 -7 2 C-2.25 0 -2.25 0 0 0 Z " fill="#464646" transform="translate(620,244)"/>
<path d="M0 0 C0 3.98919362 -1.17179136 6.46966608 -3 10 C-5.6875 11.9375 -5.6875 11.9375 -8 13 C-6.88606984 9.14408789 -6.01775359 6.65562316 -3 4 C-1.98199424 2.68036291 -0.97751635 1.34990354 0 0 Z " fill="#454545" transform="translate(235,520)"/>
<path d="M0 0 C0.66 0 1.32 0 2 0 C2 1.65 2 3.3 2 5 C1.34 5 0.68 5 0 5 C-0.103125 5.763125 -0.20625 6.52625 -0.3125 7.3125 C-1.04364039 10.17059424 -1.76951913 11.15742885 -4 13 C-4.66 12.67 -5.32 12.34 -6 12 C-4.625 9.5 -4.625 9.5 -3 7 C-2.34 7 -1.68 7 -1 7 C-0.67 4.69 -0.34 2.38 0 0 Z " fill="#434343" transform="translate(328,420)"/>
<path d="M0 0 C2.31 0 4.62 0 7 0 C6.67 0.99 6.34 1.98 6 3 C6 2.34 6 1.68 6 1 C2.48769794 2.97020012 2.48769794 2.97020012 -0.5 5.625 C-2.51536084 7.4724141 -4.33833049 7.64031493 -7 8 C-5 5 -5 5 -2 4 C-0.79117904 1.99983534 -0.79117904 1.99983534 0 0 Z " fill="#ACACAC" transform="translate(139,371)"/>
<path d="M0 0 C0 0.66 0 1.32 0 2 C-0.886875 2.391875 -1.77375 2.78375 -2.6875 3.1875 C-6.12099103 5.06620264 -8.29000698 7.2147294 -11 10 C-11.66 10 -12.32 10 -13 10 C-13.33 10.66 -13.66 11.32 -14 12 C-14 9 -14 9 -12.390625 7.24609375 C-11.33101563 6.35083984 -11.33101563 6.35083984 -10.25 5.4375 C-9.55390625 4.83808594 -8.8578125 4.23867188 -8.140625 3.62109375 C-5.53230713 1.64581653 -3.33501829 0 0 0 Z " fill="#C8C8C8" transform="translate(424,453)"/>
<path d="M0 0 C0 0.66 0 1.32 0 2 C-1.3921875 2.680625 -1.3921875 2.680625 -2.8125 3.375 C-6.03921389 4.9421633 -6.03921389 4.9421633 -9 7 C-11.1875 6.625 -11.1875 6.625 -13 6 C-11.59719304 3.19438607 -9.9490995 2.99319493 -7.0625 1.875 C-6.16660156 1.52179688 -5.27070313 1.16859375 -4.34765625 0.8046875 C-2 0 -2 0 0 0 Z " fill="#4F4F4F" transform="translate(313,251)"/>
<path d="M0 0 C0 3 0 3 -1.6796875 4.7890625 C-2.40414062 5.39492188 -3.12859375 6.00078125 -3.875 6.625 C-4.59429688 7.23601562 -5.31359375 7.84703125 -6.0546875 8.4765625 C-8 10 -8 10 -10 11 C-9.67 9.68 -9.34 8.36 -9 7 C-8.34 7 -7.68 7 -7 7 C-7 6.01 -7 5.02 -7 4 C-4.69 2.68 -2.38 1.36 0 0 Z " fill="#303030" transform="translate(568,393)"/>
<path d="M0 0 C1.98 0 3.96 0 6 0 C6.49940808 6.11774896 5.24900602 9.02495953 2 14 C1.06954067 11.44855176 0.91435909 10.25993522 1.77734375 7.640625 C2.16019531 6.85171875 2.54304687 6.0628125 2.9375 5.25 C3.31777344 4.45078125 3.69804687 3.6515625 4.08984375 2.828125 C4.39019531 2.22484375 4.69054687 1.6215625 5 1 C3.35 1 1.7 1 0 1 C0 0.67 0 0.34 0 0 Z " fill="#414141" transform="translate(141,370)"/>
<path d="M0 0 C0.33 1.32 0.66 2.64 1 4 C-0.9375 6.75 -0.9375 6.75 -3 9 C-4.32 8.67 -5.64 8.34 -7 8 C-4.69 5.36 -2.38 2.72 0 0 Z " fill="#535353" transform="translate(637,227)"/>
<path d="M0 0 C-0.90363281 0.27714844 -1.80726563 0.55429688 -2.73828125 0.83984375 C-3.91777344 1.20207031 -5.09726562 1.56429687 -6.3125 1.9375 C-8.07013672 2.47697266 -8.07013672 2.47697266 -9.86328125 3.02734375 C-11.91553977 3.66372279 -13.96160137 4.32053379 -16 5 C-15.67 4.01 -15.34 3.02 -15 2 C-12.63671875 1.015625 -12.63671875 1.015625 -9.6875 0.25 C-8.72199219 -0.01296875 -7.75648438 -0.2759375 -6.76171875 -0.546875 C-4.0629274 -0.98967528 -2.54716045 -0.89543883 0 0 Z " fill="#202020" transform="translate(625,83)"/>
<path d="M0 0 C-3.3 0.66 -6.6 1.32 -10 2 C-10 2.66 -10 3.32 -10 4 C-12.31 4.33 -14.62 4.66 -17 5 C-15.68 4.34 -14.36 3.68 -13 3 C-13 2.34 -13 1.68 -13 1 C-11.58622218 0.63447197 -10.16879424 0.28304505 -8.75 -0.0625 C-7.96109375 -0.25972656 -7.1721875 -0.45695312 -6.359375 -0.66015625 C-4 -1 -4 -1 0 0 Z " fill="#8E8E8E" transform="translate(436,470)"/>
<path d="M0 0 C2.64 0.66 5.28 1.32 8 2 C8 2.66 8 3.32 8 4 C9.32 4.33 10.64 4.66 12 5 C11.67 5.66 11.34 6.32 11 7 C9.53708696 6.4070085 8.07978487 5.80016177 6.625 5.1875 C5.81289062 4.85105469 5.00078125 4.51460938 4.1640625 4.16796875 C2 3 2 3 0 0 Z " fill="#494949" transform="translate(247,393)"/>
<path d="M0 0 C2 1 4 2 6 3 C6 3.66 6 4.32 6 5 C8.97 5.495 8.97 5.495 12 6 C12.33 6.99 12.66 7.98 13 9 C12.4225 8.690625 11.845 8.38125 11.25 8.0625 C9.15705816 7.07416636 7.25464725 6.4831387 5 6 C5 5.34 5 4.68 5 4 C3.35 3.67 1.7 3.34 0 3 C0 2.01 0 1.02 0 0 Z " fill="#6B6B6B" transform="translate(525,237)"/>
<path d="M0 0 C0.66 0 1.32 0 2 0 C1.23902349 5.13659144 -2.36120673 8.54314639 -6 12 C-6 8.87099787 -5.57548683 7.62581138 -4 5 C-3.34 4.67 -2.68 4.34 -2 4 C-0.86649466 1.98330173 -0.86649466 1.98330173 0 0 Z " fill="#494949" transform="translate(182,595)"/>
<path d="M0 0 C0.33 0.66 0.66 1.32 1 2 C0.22265625 3.7265625 0.22265625 3.7265625 -0.9375 5.625 C-1.618125 6.73875 -2.29875 7.8525 -3 9 C-3.66 9 -4.32 9 -5 9 C-5.33 10.32 -5.66 11.64 -6 13 C-6.66 13 -7.32 13 -8 13 C-7.1875 10.0625 -7.1875 10.0625 -6 7 C-5.01 6.67 -4.02 6.34 -3 6 C-1.84478498 3.52869082 -1.84478498 3.52869082 -1 1 C-0.67 0.67 -0.34 0.34 0 0 Z " fill="#444444" transform="translate(196,576)"/>
<path d="M0 0 C0.66 0 1.32 0 2 0 C2 0.66 2 1.32 2 2 C1.34 2 0.68 2 0 2 C-0.103125 2.598125 -0.20625 3.19625 -0.3125 3.8125 C-1.08876455 6.28243264 -2.07088921 7.32251235 -4 9 C-4.99 8.67 -5.98 8.34 -7 8 C-5.88200014 6.66079162 -4.75538103 5.32877444 -3.625 4 C-2.68527344 2.88625 -2.68527344 2.88625 -1.7265625 1.75 C-1.15679687 1.1725 -0.58703125 0.595 0 0 Z " fill="#3C3C3C" transform="translate(320,434)"/>
<path d="M0 0 C-1.98 0.66 -3.96 1.32 -6 2 C-6 2.66 -6 3.32 -6 4 C-8.31 4 -10.62 4 -13 4 C-13.33 3.34 -13.66 2.68 -14 2 C-12.04396149 1.47061343 -10.08507711 0.95173199 -8.125 0.4375 C-7.03445312 0.14746094 -5.94390625 -0.14257812 -4.8203125 -0.44140625 C-2 -1 -2 -1 0 0 Z " fill="#646464" transform="translate(95,359)"/>
<path d="M0 0 C3.11990898 2.78533429 3.53816182 4.84345641 4 9 C4.66 9 5.32 9 6 9 C6.33 10.65 6.66 12.3 7 14 C5.109375 13.3828125 5.109375 13.3828125 3 12 C1.953125 9.1796875 1.953125 9.1796875 1.25 5.875 C1.00765625 4.77929688 0.7653125 3.68359375 0.515625 2.5546875 C0.34546875 1.71164063 0.1753125 0.86859375 0 0 Z " fill="#3F3F3F" transform="translate(666,158)"/>
<path d="M0 0 C3.51705958 0.65271556 6.89325077 1.51393024 10.3125 2.5625 C11.19550781 2.83191406 12.07851563 3.10132813 12.98828125 3.37890625 C13.65214844 3.58386719 14.31601562 3.78882813 15 4 C15 4.33 15 4.66 15 5 C9.1977825 5.36263859 5.36000789 4.25684543 0 2 C0 1.34 0 0.68 0 0 Z " fill="#343434" transform="translate(637,52)"/>
<path d="M0 0 C-9.26712329 6.31849315 -9.26712329 6.31849315 -15 6 C-12.66785852 4.79371992 -10.50357861 3.8345262 -8 3 C-7.67 2.01 -7.34 1.02 -7 0 C-2.25 -1.125 -2.25 -1.125 0 0 Z " fill="#6A6A6A" transform="translate(400,512)"/>
<path d="M0 0 C0.66 0 1.32 0 2 0 C1.67 3.3 1.34 6.6 1 10 C0.34 10 -0.32 10 -1 10 C-1.02689216 8.52093108 -1.04634621 7.04172517 -1.0625 5.5625 C-1.07410156 4.73878906 -1.08570313 3.91507812 -1.09765625 3.06640625 C-1 1 -1 1 0 0 Z " fill="#3E3E3E" transform="translate(290,500)"/>
<path d="M0 0 C0.66 0 1.32 0 2 0 C1.4739075 3.78786597 0.61896089 6.17152224 -2 9 C-2.66 9 -3.32 9 -4 9 C-4.33 9.66 -4.66 10.32 -5 11 C-4.6875 8.625 -4.6875 8.625 -4 6 C-3.01 5.34 -2.02 4.68 -1 4 C-0.27617533 1.94074861 -0.27617533 1.94074861 0 0 Z " fill="#383838" transform="translate(575,380)"/>
<path d="M0 0 C0 0.33 0 0.66 0 1 C-0.68707031 1.04898438 -1.37414062 1.09796875 -2.08203125 1.1484375 C-3.43361328 1.26058594 -3.43361328 1.26058594 -4.8125 1.375 C-5.70582031 1.44460937 -6.59914063 1.51421875 -7.51953125 1.5859375 C-10.24398499 1.86645036 -10.24398499 1.86645036 -13 4 C-15.1875 3.625 -15.1875 3.625 -17 3 C-11.42531458 -0.61601216 -6.39432346 -0.30720059 0 0 Z " fill="#616161" transform="translate(603,33)"/>
<path d="M0 0 C0.66 0.33 1.32 0.66 2 1 C1.566875 1.495 1.13375 1.99 0.6875 2.5 C-1.56381668 5.83528397 -2.671061 9.20303142 -4 13 C-5 11 -5 11 -4.44140625 8.8359375 C-4.15136719 8.02382813 -3.86132812 7.21171875 -3.5625 6.375 C-3.27503906 5.55773437 -2.98757812 4.74046875 -2.69140625 3.8984375 C-2.46324219 3.27195312 -2.23507813 2.64546875 -2 2 C-1.34 2 -0.68 2 0 2 C0 1.34 0 0.68 0 0 Z " fill="#656565" transform="translate(135,697)"/>
<path d="M0 0 C0.66 0 1.32 0 2 0 C2.39253254 4.44870215 1.15305957 7.14243493 -1 11 C-2.60080151 6.99799622 -1.29279692 3.95443764 0 0 Z " fill="#383838" transform="translate(242,498)"/>
<path d="M0 0 C1.59157575 3.1831515 0.77242108 5.61323065 0 9 C-2.05078125 10.72265625 -2.05078125 10.72265625 -4 12 C-3.52494322 10.18641846 -3.04483958 8.37415821 -2.5625 6.5625 C-2.29566406 5.55316406 -2.02882813 4.54382813 -1.75390625 3.50390625 C-1 1 -1 1 0 0 Z " fill="#656565" transform="translate(378,457)"/>
<path d="M0 0 C2.97 0 5.94 0 9 0 C9 0.66 9 1.32 9 2 C10.65 2 12.3 2 14 2 C14 2.33 14 2.66 14 3 C8.78020872 3.1799928 4.92737019 2.97094808 0 1 C0 0.67 0 0.34 0 0 Z " fill="#616161" transform="translate(465,215)"/>
<path d="M0 0 C1.32 0.33 2.64 0.66 4 1 C4 1.66 4 2.32 4 3 C5.32 3.33 6.64 3.66 8 4 C8 4.66 8 5.32 8 6 C4.62537285 5.45276317 2.91765 4.9451 0 3 C0 2.01 0 1.02 0 0 Z " fill="#393939" transform="translate(634,125)"/>
<path d="M0 0 C0.625 1.8125 0.625 1.8125 1 4 C0.01 5.485 0.01 5.485 -1 7 C-1.66 7 -2.32 7 -3 7 C-3.33 7.99 -3.66 8.98 -4 10 C-3.5205537 5.78087253 -2.83374881 3.20336822 0 0 Z " fill="#323232" transform="translate(214,550)"/>
<path d="M0 0 C0.33 0.66 0.66 1.32 1 2 C0.67 2.66 0.34 3.32 0 4 C-0.66 4 -1.32 4 -2 4 C-2.4021875 5.2065625 -2.4021875 5.2065625 -2.8125 6.4375 C-3.4003125 7.7059375 -3.4003125 7.7059375 -4 9 C-4.99 9.33 -5.98 9.66 -7 10 C-6.67 8.68 -6.34 7.36 -6 6 C-5.34 6 -4.68 6 -4 6 C-3.67 5.01 -3.34 4.02 -3 3 C-2.34 3 -1.68 3 -1 3 C-0.67 2.01 -0.34 1.02 0 0 Z " fill="#323232" transform="translate(222,540)"/>
<path d="M0 0 C0.66 0.33 1.32 0.66 2 1 C-1.01887244 4.48331435 -3.56909529 5.79157144 -8 7 C-8 6.01 -8 5.02 -8 4 C-6.02 3.67 -4.04 3.34 -2 3 C-2 2.34 -2 1.68 -2 1 C-1.34 0.67 -0.68 0.34 0 0 Z " fill="#3B3B3B" transform="translate(432,445)"/>
<path d="M0 0 C0.99 0.66 1.98 1.32 3 2 C3 2.66 3 3.32 3 4 C3.66 4 4.32 4 5 4 C4.67 5.32 4.34 6.64 4 8 C2.62437146 6.71034824 1.29233607 5.37310707 0 4 C0 3.34 0 2.68 0 2 C-0.66 1.67 -1.32 1.34 -2 1 C-1.34 0.67 -0.68 0.34 0 0 Z " fill="#2E2E2E" transform="translate(624,154)"/>
<path d="M0 0 C3.0831351 1.19899698 6.06279492 2.47700477 9 4 C8.67 5.32 8.34 6.64 8 8 C7.67 7.01 7.34 6.02 7 5 C5.33927151 4.31867549 3.672233 3.65257873 2 3 C1.34 2.01 0.68 1.02 0 0 Z " fill="#3D3D3D" transform="translate(600,138)"/>
<path d="M0 0 C0.33 0.66 0.66 1.32 1 2 C-0.70625501 4.78388975 -1.47626739 5.85384206 -4.6875 6.75 C-5.8321875 6.87375 -5.8321875 6.87375 -7 7 C-4.66666667 4.66666667 -2.33333333 2.33333333 0 0 Z " fill="#4E4E4E" transform="translate(290,463)"/>
<path d="M0 0 C1.32 0.33 2.64 0.66 4 1 C3.319375 1.61875 3.319375 1.61875 2.625 2.25 C0.94049626 4.06408095 0.00734029 5.75285627 -1 8 C-1.33 8 -1.66 8 -2 8 C-2.20086443 4.28400809 -2.1519437 3.22791555 0 0 Z " fill="#545454" transform="translate(655,259)"/>
<path d="M0 0 C-2.35968744 2.09749995 -3.54616994 2.96905704 -6.75 3.1875 C-7.86375 3.0946875 -7.86375 3.0946875 -9 3 C-9 2.34 -9 1.68 -9 1 C-5.57367167 -0.61798838 -3.61944899 -1.34053666 0 0 Z " fill="#3D3D3D" transform="translate(331,244)"/>
<path d="M0 0 C-1 1 -1 1 -3.5625 1.0625 C-4.7690625 1.0315625 -4.7690625 1.0315625 -6 1 C-6.33 1.99 -6.66 2.98 -7 4 C-8.32 3.67 -9.64 3.34 -11 3 C-7.70039114 0.18922208 -4.22288017 -2.11144009 0 0 Z " fill="#585858" transform="translate(265,483)"/>
<path d="M0 0 C3.66881155 0.70554068 6.70450534 2.27735506 10 4 C5.82412255 5.39195915 3.86525224 3.82323219 0 2 C0 1.34 0 0.68 0 0 Z " fill="#5D5D5D" transform="translate(538,246)"/>
<path d="M0 0 C4.31392226 0.4793247 6.16569547 1.7457985 9 5 C6.03 4.505 6.03 4.505 3 4 C3 3.34 3 2.68 3 2 C2.01 2 1.02 2 0 2 C0 1.34 0 0.68 0 0 Z " fill="#5A595A" transform="translate(609,35)"/>
<path d="M0 0 C0.6875 1.8125 0.6875 1.8125 1 4 C-0.3125 5.75 -0.3125 5.75 -2 7 C-2.66 7 -3.32 7 -4 7 C-2.92598892 4.08482708 -2.22189824 2.22189824 0 0 Z " fill="#2F2F2F" transform="translate(248,491)"/>
<path d="M0 0 C2.64 0 5.28 0 8 0 C6.68 0.33 5.36 0.66 4 1 C4 1.66 4 2.32 4 3 C2.35 3 0.7 3 -1 3 C-0.67 2.01 -0.34 1.02 0 0 Z " fill="#6F6F6F" transform="translate(488,479)"/>
<path d="M0 0 C0 0.99 0 1.98 0 3 C-0.66 3 -1.32 3 -2 3 C-2.66 4.98 -3.32 6.96 -4 9 C-4.33 9 -4.66 9 -5 9 C-5.3125 6.1875 -5.3125 6.1875 -5 3 C-2.5 1.125 -2.5 1.125 0 0 Z " fill="#606060" transform="translate(442,433)"/>
<path d="M0 0 C0.99 0.33 1.98 0.66 3 1 C3.33 2.32 3.66 3.64 4 5 C1.36 4.34 -1.28 3.68 -4 3 C-2.68 2.67 -1.36 2.34 0 2 C0 1.34 0 0.68 0 0 Z " fill="#B8B8B8" transform="translate(194,290)"/>
<path d="M0 0 C5.53846154 0.49230769 5.53846154 0.49230769 7.875 3.0625 C8.431875 4.0215625 8.431875 4.0215625 9 5 C6.69 4.34 4.38 3.68 2 3 C2 2.34 2 1.68 2 1 C1.34 0.67 0.68 0.34 0 0 Z " fill="#505050" transform="translate(514,232)"/>
<path d="M0 0 C0.66 0 1.32 0 2 0 C2 0.66 2 1.32 2 2 C2.66 2 3.32 2 4 2 C4.33 4.31 4.66 6.62 5 9 C0.57142857 3.85714286 0.57142857 3.85714286 0 0 Z " fill="#2E2E2E" transform="translate(573,103)"/>
</svg>
